<?xml version="1.0" standalone="no"?>
<!DOCTYPE svg PUBLIC "-//W3C//DTD SVG 20010904//EN"
 "http://www.w3.org/TR/2001/REC-SVG-20010904/DTD/svg10.dtd">
<svg version="1.0" xmlns="http://www.w3.org/2000/svg"
 width="512.000000pt" height="512.000000pt" viewBox="0 0 512.000000 512.000000"
 preserveAspectRatio="xMidYMid meet">
<metadata>
Created by potrace 1.15, written by Peter Selinger 2001-2017
</metadata>
<g transform="translate(0.000000,512.000000) scale(0.100000,-0.100000)"
fill="#000000" stroke="none">
<path d="M2455 4579 c-377 -51 -674 -299 -804 -671 -167 -480 -17 -1026 359
-1302 334 -245 826 -245 1160 0 385 282 531 844 348 1331 -123 326 -389 561
-711 627 -99 21 -262 28 -352 15z"/>
<path d="M1788 2610 c-15 -4 -69 -37 -120 -73 -413 -289 -667 -707 -728 -1201
-15 -124 -7 -147 88 -237 320 -306 727 -510 1177 -590 169 -30 492 -37 665
-15 494 65 929 268 1271 594 108 102 115 121 99 255 -61 502 -319 921 -744
1206 -129 87 -169 88 -265 6 -97 -83 -253 -155 -415 -192 -98 -23 -354 -23
-452 0 -160 36 -320 110 -411 189 -47 40 -100 69 -125 67 -7 0 -25 -4 -40 -9z
m1672 -590 l205 -89 3 -233 c2 -208 0 -240 -17 -298 -48 -156 -174 -301 -338
-387 l-73 -38 -73 38 c-164 86 -290 231 -338 387 -17 58 -19 90 -17 298 l3
234 205 89 c113 48 212 88 220 88 8 0 107 -40 220 -89z"/>
<path d="M3070 1926 l-165 -72 0 -210 0 -210 34 -69 c42 -87 149 -196 238
-243 l62 -33 53 27 c107 54 196 142 253 251 l30 58 3 215 3 215 -158 67 c-87
37 -165 70 -173 72 -8 3 -89 -28 -180 -68z m388 -268 c-9 -7 -69 -58 -133
-113 -64 -55 -121 -100 -126 -100 -10 0 -129 132 -129 144 0 4 10 16 21 27 21
19 22 19 68 -33 l47 -52 109 94 110 94 25 -24 c22 -22 23 -26 8 -37z"/>
</g>
</svg>
